<?xml version="1.0" standalone="no"?>
<!DOCTYPE svg PUBLIC "-//W3C//DTD SVG 1.1//EN" "http://www.w3.org/Graphics/SVG/1.1/DTD/svg11.dtd" >
<!--
2013-9-30: Created.
-->
<svg>
<metadata>
Created by iconfont
</metadata>
<defs>

<font id="iconfont" horiz-adv-x="1024" >
  <font-face
    font-family="iconfont"
    font-weight="500"
    font-stretch="normal"
    units-per-em="1024"
    ascent="896"
    descent="-128"
  />
    <missing-glyph />
    
    <glyph glyph-name="weizhi" unicode="&#59065;" d="M512 697.049c92.104 0 166.755-74.65 166.755-166.755 0-92.105-74.651-166.755-166.755-166.755-92.105 0-166.756 74.65-166.756 166.755C345.244 622.399 419.895 697.049 512 697.049zM877.824 530.294C877.824 732.193 714.017 896 512 896 309.982 896 146.176 732.193 146.176 530.294c0-73.825 21.817-142.344 59.438-199.894l-0.59 0 274.191-438.116C485.111-119.745 497.612-128 512-128c14.387 0 26.771 8.255 32.785 20.284L818.976 330.4l-0.707 0C855.889 387.95 877.824 456.469 877.824 530.294z"  horiz-adv-x="1024" />

    
    <glyph glyph-name="weibiaoti108" unicode="&#58888;" d="M988.293 34.533 711.058 311.768c33.256 56.318 52.687 121.767 52.687 191.911 0 208.969-169.403 378.372-378.372 378.372C176.402 882.051 7 712.648 7 503.679 7 294.71 176.402 125.307 385.372 125.307c70.144 0 135.591 19.431 191.91 52.687l277.235-277.235c17.104-17.105 40.769-27.698 66.881-27.698 52.239 0 94.593 42.354 94.593 94.593C1015.991-6.236 1005.398 17.412 988.293 34.533zM385.372 219.9c-156.729 0-283.779 127.048-283.779 283.778 0 156.731 127.05 283.779 283.779 283.779S669.15 660.41 669.15 503.679C669.15 346.948 542.102 219.9 385.372 219.9z"  horiz-adv-x="1024" />

    
    <glyph glyph-name="chazhao" unicode="&#58882;" d="M905.269875-62.187085c-10.406001 0-20.884656 3.169179-29.953196 9.625218-1.277086 0.909719-2.547009 1.89721-3.88447 3.0208-1.098008 0.923022-2.347464 2.025123-3.929496 3.470031-2.278903 2.078335-5.389754 4.993734-9.513678 8.911974-7.223518 6.865361-17.71957 16.975627-31.196513 30.04734-22.551622 21.874193-53.872978 52.452629-93.093235 90.88494-38.376029 37.605479-76.982302 75.54558-102.986559 101.122095-47.738257-33.07735-118.938879-68.653613-204.323549-68.653613-48.52211 0-95.625918 9.420557-140.000568 28.001751-42.868343 17.949814-81.366146 43.644009-114.423029 76.370365-33.092699 32.761148-59.084677 70.934562-77.254501 113.462145-18.838044 44.090171-28.389584 90.902336-28.389584 139.134851s9.55154 95.043656 28.389584 139.134851c18.169825 42.527582 44.161802 80.70202 77.255525 113.462145 33.056883 32.725332 71.554686 58.420551 114.423029 76.370365 44.37465 18.581194 91.477434 28.001751 140.000568 28.001751s95.625918-9.42158 140.000568-28.001751c42.868343-17.949814 81.366146-43.644009 114.422006-76.370365 33.092699-32.760125 59.084677-70.934562 77.254501-113.462145 18.838044-44.091194 28.389584-90.90336 28.389584-139.134851 0-78.922491-28.040636-154.856927-79.862909-218.400149 25.957185-25.186635 62.700017-60.862159 99.18907-96.363721 39.278585-38.21844 70.586638-68.765153 93.052303-90.795912 13.405311-13.143345 23.801079-23.390733 30.899754-30.460756 4.001127-3.984754 6.984065-6.985088 9.118682-9.174963 5.646604-5.792936 17.395182-17.84646 17.561981-38.606273l0.172939-21.420869-15.142885-15.162328C931.517679-57.101253 918.451082-62.187085 905.269875-62.187085zM426.38918 727.850325c-142.116765 0-257.737062-114.230648-257.737062-254.638491 0-140.407843 115.620297-254.638491 257.737062-254.638491 76.506465 0 139.588175 42.929742 172.042331 70.325695l1.607614 1.50119c54.223972 50.646494 84.087117 115.570155 84.087117 182.811606C684.126242 613.619678 568.505945 727.850325 426.38918 727.850325z"  horiz-adv-x="1024" />

    
    <glyph glyph-name="weizhi1" unicode="&#58974;" d="M514.59812 896c-235.449297 0-426.347226-189.620165-426.347226-423.450961 0-107.502537 40.632892-205.294069 107.076616-280.000666C197.201564 189.141003 199.416355 185.818817 202.397804 182.837368l277.019216-288.007986c1.362948-1.874054 2.725896-3.748107 4.429582-5.451793 4.174029-4.174029 9.029532-7.240662 14.140587-9.285084 15.844273-7.411031 35.1811-5.025871 48.214292 8.007321 3.662923 3.577739 6.303635 7.751768 8.433242 12.181349l271.737792 282.641378C828.928043 185.392896 830.972465 188.289161 832.761334 191.355794c67.125198 74.791781 108.269196 173.179602 108.269196 281.193245C940.945346 706.379835 750.047417 896 514.59812 896zM514.342567 300.562016c-106.054405 0-192.090508 85.439814-192.090508 190.72756s86.036103 190.72756 192.090508 190.72756 192.090508-85.439814 192.090508-190.72756S620.396972 300.562016 514.342567 300.562016z"  horiz-adv-x="1024" />

    
    <glyph glyph-name="fanhuidingbu" unicode="&#58915;" d="M82.351192 776.55402c0-39.548121 32.059475-71.608889 71.607596-71.608889h716.083717c39.548121 0 71.607596 32.059475 71.607596 71.607596s-32.059475 71.607596-71.607596 71.607596H153.958788C114.410667 848.161616 82.351192 816.102141 82.351192 776.55402zM156.176162 203.685495h110.421333c16.888242 0 30.579071-13.690828 30.579071-30.579071v-225.273535c0-16.888242 13.690828-30.579071 30.57907-30.579071h368.491313c16.888242 0 30.579071 13.690828 30.579071 30.579071V173.106424c0 16.888242 13.690828 30.579071 30.579071 30.579071h110.418747c27.243313 0 40.887596 32.938667 21.62295 52.203313L533.623596 611.713293c-11.941495 11.941495-31.304404 11.941495-43.245899 0L134.553212 255.888808c-19.264646-19.264646-5.620364-52.203313 21.62295-52.203313z"  horiz-adv-x="1024" />

    
    <glyph glyph-name="fanhuidingbu1" unicode="&#58918;" d="M553.795918 549.762612l170.861715-181.101714 30.40653 28.672-223.190204 236.585796-223.190204-237.735184 30.469225-28.630204 172.84702 184.152816V142.837551h41.795918V549.762612zM522.44898-128C239.678694-128 10.44898 101.229714 10.44898 384S239.678694 896 522.44898 896s512-229.229714 512-512S805.219265-128 522.44898-128z"  horiz-adv-x="1044" />

    
    <glyph glyph-name="kefu" unicode="&#59312;" d="M870.1 333.6v25.5c2 116.5-32.2 214.5-99.6 284-32.2 33.2-71 58.2-116 75.6-7.2 62.8-74.6 112.4-156.8 112.4-82.2 0-150.2-49.5-156.8-112.4-45-17.4-83.8-42.4-116-75.6-67.4-69.5-101.7-167-99.6-283.5v-31.2c-17.4-17.9-31.2-44.4-20.9-82.2 7.7-28.1 28.1-48.5 53.1-57.7 12.8-8.2 27.6-12.8 43.9-12.8 32.2-141 148.1-237 299.9-237 151.7 0 267.7 96 299.9 237.5 1 0 2-0.5 3.1-0.5 19.9 0 38.3 7.2 53.1 18.9 18.9 10.7 33.7 29.1 39.8 52.1 10.7 41-7.2 69.1-27.1 86.9z m-88.9-77.1c0-18.9-1.5-36.8-4.1-54.1-49.5-79.7-131.3-131.8-232.9-143-7.7 10.2-23 16.9-40.9 16.9-25.5 0-46-13.8-46-31.2 0-16.9 20.4-31.2 46-31.2 23 0 41.4 11.2 45.5 26.1 32.7 3.6 63.9 11.7 93.5 23.5 41.9 16.9 78.7 41.9 109.8 73.6 5.1 5.1 9.7 10.2 14.3 15.8-36.8-113-135.4-185.5-263.6-185.5h-1c-165 0-279.9 119-279.9 289.1l-0.5 16.3c0 7.2 1 26.6 2 45 68.5 25 130.3 120.6 155.3 164.5 23-31.2 75.6-91.4 156.3-122.6 30.1-11.7 60.8-17.9 90.9-24.5 59.8-12.8 116.5-25 154.8-75.1l1.5-1.5-1-2.1z m0 0"  horiz-adv-x="1024" />

    
    <glyph glyph-name="top" unicode="&#58924;" d="M186.181818 709.818182l651.636364 0 0-46.545455-651.636364 0 0 46.545455ZM509.207273 554.216727l-279.738182-279.738182a23.272727 23.272727 0 1 0-32.907636 32.907637l296.168727 296.215273a23.179636 23.179636 0 0 0 32.954182 0l296.215272-296.215273a23.272727 23.272727 0 1 0-32.907636-32.907637l-279.784727 279.738182zM488.727273 570.181818l46.545454 0 0-605.090909-46.545454 0 0 605.090909Z"  horiz-adv-x="1024" />

    
    <glyph glyph-name="gouwuche3" unicode="&#58626;" d="M357.44 129.60000000000002q18.24 0 34.56-6.72t28.8-18.72 19.2-28.32 6.72-34.56-6.72-34.56-19.2-28.32-28.8-19.2-34.56-7.2q-19.2 0-35.04 7.2t-28.32 19.2-19.2 28.32-6.72 34.56 6.72 34.56 19.2 28.32 28.32 18.72 35.04 6.72zM756.8 127.67999999999995q18.24 0 35.04-6.72t28.8-18.72 19.2-28.32 7.2-34.56-7.2-34.56-19.2-28.32-28.8-19.2-35.04-7.2-34.56 7.2-28.32 19.2-19.2 28.32-7.2 34.56 7.2 34.56 19.2 28.32 28.32 18.72 34.56 6.72zM918.08 672.96q26.88 0 41.76-7.2t21.12-17.76 5.76-22.56-3.36-20.64-12-35.52-20.64-59.04-22.56-63.84-16.8-49.92q-12.48-38.4-31.68-53.28t-47.04-14.88l-32.64 0-62.4 0-81.6 0-89.28 0-238.08 0 14.4-86.4 483.84 0q46.08 0 46.08-39.36 0-19.2-9.12-33.12t-36-13.92l-46.08 0-89.28 0-110.4 0-112.32 0-92.16 0-52.8 0q-19.2 0-32.16 8.64t-21.6 22.56-13.92 30.24-8.16 30.72q-0.96 5.76-5.28 27.84t-10.56 55.2-13.92 73.92-15.36 82.08q-18.24 96.96-41.28 216l-72 0q-14.4 0-24 7.2t-15.84 17.28-8.64 21.6-2.4 21.12q0 19.2 12.96 31.68t35.04 12.48l21.12 0 19.2 0 24 0 32.64 0q19.2 0 30.72-5.76t18.24-14.4 9.6-18.24 4.8-16.32q1.92-7.68 3.84-21.6t3.84-28.32q2.88-17.28 5.76-36.48l656.64 0z"  horiz-adv-x="1024" />

    
    <glyph glyph-name="kefu1" unicode="&#58883;" d="M1361.866667 597.733333c-25.066667 49.733333-60.8 94.4-106.266667 132.533334C1163.066667 808 1040.266667 850.8 909.866667 850.8c-130.4 0-253.2-42.8-345.733334-120.533333-45.466667-38.266667-81.2-82.8-106.266666-132.533334-26.133333-51.866667-39.333333-107.066667-39.333334-164 0-66.133333 18.666667-131.866667 53.866667-190.266666 31.333333-51.866667 76-98.266667 129.6-134.933334L600-83.6 770.933333 33.333333c44.933333-11.2 91.6-16.933333 138.933334-16.933333 130.4 0 253.2 42.8 345.733333 120.533333 45.466667 38.266667 81.2 82.8 106.266667 132.533334 26.133333 51.866667 39.333333 107.066667 39.333333 164s-13.2 112.266667-39.333333 164.266666z m-452-526.666666c-46.8 0-92.8 6.133333-136.933334 18.133333l-12.266666 3.333333-105.066667-72 1.2 117.2-12.8 8.133334c-108.666667 69.333333-171.066667 174.266667-171.066667 287.733333 0 200 196 362.666667 436.8 362.666667 117.6 0 227.866667-38.266667 310.666667-107.866667 81.333333-68.4 126.133333-158.8 126.133333-254.8 0.133333-199.866667-195.733333-362.533333-436.666666-362.533333z m0 0M607.733333 433.733333c0-29.066667 23.6-52.666667 52.666667-52.666666s52.666667 23.6 52.666667 52.666666-23.6 52.666667-52.666667 52.666667-52.666667-23.6-52.666667-52.666667z m0 0M854.533333 433.733333c0-29.066667 23.6-52.666667 52.666667-52.666666s52.666667 23.6 52.666667 52.666666-23.6 52.666667-52.666667 52.666667-52.666667-23.6-52.666667-52.666667z m0 0M1101.333333 433.733333c0-29.066667 23.6-52.666667 52.666667-52.666666s52.533333 23.6 52.533333 52.666666-23.6 52.666667-52.533333 52.666667c-29.066667 0-52.666667-23.6-52.666667-52.666667z m0 0"  horiz-adv-x="1821" />

    
    <glyph glyph-name="fenxiang" unicode="&#59013;" d="M799.6 511.4c88.4 0 160 71.6 160 160s-71.6 160-160 160-160-71.6-160-160c0-15.9 2.3-31.3 6.7-45.8L349.2 454.1c-29.3 36.2-74.2 59.4-124.4 59.4-88.4 0-160-71.6-160-160s71.6-160 160-160c44.9 0 85.5 18.5 114.6 48.3l177.4-102.4c-3.9-13.9-6-28.5-6-43.6 0-88.4 71.6-160 160-160s160 71.6 160 160-71.6 160-160 160c-50.3 0-95.2-23.2-124.5-59.5L374 295.70000000000005c6.9 17.9 10.8 37.4 10.8 57.8 0 15.2-2.1 29.8-6.1 43.7l297.8 171.9c29.4-35.2 73.6-57.7 123.1-57.7z"  horiz-adv-x="1024" />

    
    <glyph glyph-name="fanhuidingbu2" unicode="&#59926;" d="M759.528727 746.868364H262.516364A74.565818 74.565818 0 0 0 262.516364 896h496.965818a74.565818 74.565818 0 0 0 0-149.131636z m100.119273-390.516364a74.565818 74.565818 0 1 0-100.165818-110.452364L576.232727 412.113455v-465.547637a74.565818 74.565818 0 1 0-149.131636 0V414.766545l-186.088727-168.866909a74.007273 74.007273 0 0 0-50.036364-19.269818 74.565818 74.565818 0 0 0-50.129455 129.768727l298.077091 270.429091c1.536 2.094545 2.885818 4.328727 4.654546 6.283637 14.801455 16.290909 35.095273 24.250182 55.389091 24.250182 0.930909 0 1.768727 0.232727 2.699636 0.232727l1.675636-0.139637c2.792727-0.093091 5.585455-0.465455 8.378182-0.837818 2.094545-0.279273 4.282182-0.465455 6.330182-0.930909 2.466909-0.558545 4.840727-1.489455 7.307636-2.327273 2.141091-0.651636 4.328727-1.303273 6.469819-2.187636 2.234182-1.024 4.235636-2.327273 6.376727-3.490909 2.094545-1.210182 4.282182-2.327273 6.190545-3.677091 1.861818-1.256727 3.490909-2.792727 5.259637-4.282182 2.001455-1.722182 4.096-3.444364 5.957818-5.399272 0.418909-0.418909 0.930909-0.744727 1.256727-1.163637 1.117091-1.210182 1.861818-2.653091 2.932364-3.909818 0.930909-1.117091 1.908364-2.187636 2.792727-3.351273l297.053091-269.498182z"  horiz-adv-x="1024" />

    
    <glyph glyph-name="kefu2" unicode="&#58892;" d="M586.502212-82.102252a394.234086 394.234086 0 0 1 315.032813 311.842707 157.575483 157.575483 0 0 1 5.6713 307.195393C889.601666 738.227597 720.683584 896 514.902055 896 309.120527 896 140.202445 738.188213 122.597786 536.975232A157.614867 157.614867 0 1 1 199.829859 231.433968V502.159754a315.072197 315.072197 0 1 0 630.144393 0v-196.920123a315.190349 315.190349 0 0 0-251.033772-308.573833 78.768049 78.768049 0 1 1 7.561732-78.76805z"  horiz-adv-x="1027" />

    
    <glyph glyph-name="gouwuche" unicode="&#58628;" d="M367.1 145.5q17.1 0 32.4-6.3t27-17.55 18-26.55 6.3-32.4-6.3-32.4-18-26.55-27-18-32.4-6.75q-18 0-32.85 6.75t-26.55 18-18 26.55-6.3 32.4 6.3 32.4 18 26.55 26.55 17.55 32.85 6.3zM741.5 143.70000000000005q17.1 0 32.85-6.3t27-17.55 18-26.55 6.75-32.4-6.75-32.4-18-26.55-27-18-32.85-6.75-32.4 6.75-26.55 18-18 26.55-6.75 32.4 6.75 32.4 18 26.55 26.55 17.55 32.4 6.3zM892.7 654.9q25.2 0 39.15-6.75t19.8-16.65 5.4-21.15-3.15-19.35-11.25-33.3-19.35-55.35-21.15-59.85-15.75-46.8q-11.7-36-29.7-49.95t-44.1-13.95l-30.6 0-58.5 0-76.5 0-83.7 0-223.2 0 13.5-81 453.6 0q43.2 0 43.2-36.9 0-18-8.55-31.05t-33.75-13.05l-43.2 0-83.7 0-103.5 0-105.3 0-86.4 0-49.5 0q-18 0-30.15 8.1t-20.25 21.15-13.05 28.35-7.65 28.8q-0.9 5.4-4.95 26.1t-9.9 51.75-13.05 69.3-14.4 76.95q-17.1 90.9-38.7 202.5l-67.5 0q-13.5 0-22.5 6.75t-14.85 16.2-8.1 20.25-2.25 19.8q0 18 12.15 29.7t32.85 11.7l19.8 0 18 0 22.5 0 30.6 0q18 0 28.8-5.4t17.1-13.5 9-17.1 4.5-15.3q1.8-7.2 3.6-20.25t3.6-26.55q2.7-16.2 5.4-34.2l615.6 0z"  horiz-adv-x="1024" />

    
    <glyph glyph-name="chazhao1" unicode="&#58965;" d="M998.4 20.48l-245.76 245.76c-5.12 5.12-5.12 5.12-10.24 5.12 40.96 61.44 66.56 138.24 66.56 220.16 0 225.28-179.2 404.48-404.48 404.48S0 716.8 0 491.52s179.2-404.48 404.48-404.48c81.92 0 158.72 25.6 220.16 66.56 0-5.12 5.12-5.12 5.12-10.24l245.76-245.76c15.36-15.36 35.84-25.6 61.44-25.6s46.08 10.24 61.44 25.6c30.72 35.84 30.72 87.04 0 122.88M404.48 215.04c-153.6 0-276.48 122.88-276.48 276.48s122.88 276.48 276.48 276.48 276.48-122.88 276.48-276.48-122.88-276.48-276.48-276.48"  horiz-adv-x="1024" />

    
    <glyph glyph-name="shoppingcart-over" unicode="&#58635;" d="M376.15624999 160.40625001q16.03125002 0 30.37500003-5.90625t25.31249999-16.45312501 16.875-24.89062499 5.90624999-30.375-5.90624999-30.375-16.875-24.89062501-25.31249999-16.875-30.37500003-6.328125q-16.875 0-30.79687499 6.328125t-24.89062499 16.875-16.87500002 24.89062501-5.90624999 30.375 5.90624999 30.375 16.87500002 24.89062499 24.89062499 16.45312501 30.79687499 5.90625zM727.15625001 158.71875001q16.03125002 0 30.79687499-5.90625002t25.31250001-16.45312499 16.875-24.89062499 6.328125-30.375-6.328125-30.375-16.875-24.89062503-25.31250001-16.87499999-30.79687501-6.32812498-30.37500001 6.32812498-24.89062499 16.87499999-16.87499999 24.89062503-6.32812501 30.375 6.32812501 30.375 16.87499999 24.89062499 24.89062499 16.45312499 30.37500001 5.90625002zM868.90625001 637.96875002q23.625 0 36.70312499-6.32812502t18.5625-15.60937501 5.06250001-19.82812499-2.95312502-18.14062501-10.54687498-31.21875-18.14062502-51.89062499-19.82812499-56.10937502-14.765625-43.87499997q-10.96875001-33.75-27.84375001-46.82812501t-41.34374999-13.078125l-28.6875 0-54.84375001 0-71.71874999 0-78.46875001 0-209.24999998 0 12.65624998-75.9375 425.25000002 0q40.50000001 0 40.49999999-34.59375001 0-16.875-8.015625-29.10937499t-31.64062498-12.234375l-40.50000001 0-78.46875001 0-97.03125001 0-98.71874999 0-80.99999998 0-46.40625003 0q-16.875 0-28.26562499 7.59374999t-18.98437501 19.82812502-12.23437499 26.57812499-7.17187499 27q-0.84375001 5.0625-4.64062501 24.46874999t-9.28124999 48.51562501-12.23437502 64.96875-13.5 72.14062499q-16.03125002 85.21875001-36.28124999 189.84374999l-63.28125001 0q-12.65624999 0-21.09374997 6.32812502t-13.92187502 15.1875-7.59374999 18.984375-2.10937501 18.5625q0 16.875 11.39062499 27.84374998t30.79687501 10.96875002l18.5625 0 16.87499999 0 21.09375 0 28.6875 0q16.875 0 27-5.0625t16.03125001-12.65625001 8.4375-16.03125 4.21874998-14.34375q1.6875-6.75 3.37500001-18.98437499t3.37500002-24.89062501q2.53125001-15.1875 5.06249998-32.06250001l577.12500002 0z"  horiz-adv-x="1024" />

    
    <glyph glyph-name="yonghu" unicode="&#58944;" d="M499.784838 895.999269c141.385042 0 255.999817-114.102776 255.999817-254.75639a255.414675 255.414675 0 0 0-255.999817-254.756389c-141.385042 0-255.999817 114.102776-255.999817 254.756389A255.414675 255.414675 0 0 0 499.784838 895.999269zM404.91862 297.398553h214.162133C802.303479 297.398553 950.856516 149.942659 950.856516-32.182926v-21.211413C950.856516-125.293716 802.303479-128 619.080753-128H404.91862C221.695894-128 73.142857-127.853714 73.142857-53.467482v21.211414c0 182.125584 148.479894 329.654622 331.775763 329.654621z"  horiz-adv-x="1024" />

    
    <glyph glyph-name="yonghu1" unicode="&#58910;" d="M843.283 25.884c-8.439 140.516-104.296 257.423-233.908 297.15C687.88 359.727 742.4 439.467 742.4 531.911c0 127.242-103.159 230.4-230.4 230.4s-230.4-103.158-230.4-230.4c0-92.444 54.519-172.184 133.12-208.877-129.612-39.727-225.47-156.634-233.908-297.15-0.664-10.903 7.964-20.195 18.963-20.195 9.955 0 18.3 7.775 18.963 17.73C227.745 177.493 355.65 299.615 512 299.615s284.255-122.122 293.357-276.196c0.569-9.955 8.913-17.73 18.963-17.73 10.999 0 19.627 9.292 18.963 20.195zM319.526 531.911c0 106.288 86.187 192.474 192.474 192.474S704.474 638.2 704.474 531.911c0-106.287-86.187-192.474-192.474-192.474s-192.474 86.187-192.474 192.474z"  horiz-adv-x="1024" />

    
    <glyph glyph-name="top1" unicode="&#58657;" d="M527.01899 693.839395c-3.982202 3.987067-9.383839 6.225079-15.019007 6.225079-5.635168 0-11.036805-2.238012-15.022656-6.225079l-154.799891-154.793809c-8.29524-8.296457-8.29524-21.746423 0-30.041663 8.300106-8.296457 21.746423-8.296457 30.041663 0L511.999983 648.77994l139.771153-139.776018c4.152485-4.148837 9.588179-6.225079 15.023872-6.225079 5.434477 0 10.875036 2.076243 15.022656 6.225079 8.296457 8.29524 8.296457 21.745207 0 30.041663L527.01899 693.839395 527.01899 693.839395zM116.095644 299.917642l90.86694 0L206.962584 67.93552599999998l42.48574 0L249.448324 299.917642l90.86694 0 0 42.480875L116.095644 342.39851799999997 116.095644 299.917642zM574.63513 342.39851799999997l-112.546466 0c-13.588626 0-27.182116-5.183917-37.548734-15.550535-10.3727-10.371483-15.5554-23.960109-15.5554-37.5536l0-168.249857c0-13.593491 5.182701-27.182116 15.5554-37.5536 10.366618-10.367834 23.960109-15.5554 37.548734-15.5554l112.546466 0c13.588626 0 27.182116 5.187566 37.5536 15.5554 10.367834 10.371483 15.550535 23.960109 15.550535 37.5536L627.739265 289.29316700000004c0 13.593491-5.182701 27.182116-15.550535 37.5536C601.817247 337.2146 588.223756 342.39851799999997 574.63513 342.39851799999997L574.63513 342.39851799999997zM585.259606 121.04452600000002c0-2.010562-0.54734-4.941871-3.11254-7.511936-2.570065-2.570065-5.50624-3.11254-7.511936-3.11254l-112.546466 0c-2.005697 0-4.937006 0.542475-7.507071 3.11254-2.570065 2.570065-3.11254 5.501374-3.11254 7.511936L451.469054 289.29316700000004c0 2.009346 0.542475 4.940655 3.11254 7.511936 2.570065 2.570065 5.501374 3.111323 7.507071 3.111323l112.546466 0c2.005697 0 4.941871-0.541258 7.507071-3.111323 2.570065-2.571281 3.117405-5.507456 3.117405-7.511936L585.259606 121.04452600000002 585.259606 121.04452600000002zM892.348922 326.846766c-10.371483 10.366618-23.964974 15.5554-37.5536 15.5554l-145.653233 0L709.142089 67.93552599999998l42.480875 0 0 120.380724 103.172357 0c13.593491 0 27.182116 5.183917 37.5536 15.5554 10.367834 10.367834 15.5554 23.961325 15.5554 37.548734l0 47.873998C907.904322 302.886657 902.716756 316.475283 892.348922 326.846766L892.348922 326.846766zM865.418582 241.419169c0-2.00448-0.541258-4.93579-3.111323-7.505855-2.570065-2.571281-5.50624-3.11254-7.507071-3.11254l-103.172357 0 0 69.115652 103.172357 0c2.00448 0 4.937006-0.541258 7.507071-3.111323 2.570065-2.571281 3.111323-5.507456 3.111323-7.511936L865.418582 241.419169 865.418582 241.419169zM865.418582 241.419169"  horiz-adv-x="1024" />

    
    <glyph glyph-name="yonghu2" unicode="&#58901;" d="M514.239752 856.045721c-148.040358 0-268.517322-120.476963-268.517322-268.517322s120.476963-268.517322 268.517322-268.517322 268.517322 120.476963 268.517321 268.517322-120.476963 268.517322-268.517321 268.517322zM727.196783 587.528399c0-117.478586-95.58682-212.957031-212.957031-212.957031S301.282721 470.158188 301.282721 587.528399s95.58682 212.957031 212.957031 212.957031S727.196783 704.862485 727.196783 587.528399zM960.528329 164.359839c-25.215268 40.279405-60.979045 76.151556-106.352078 106.821703-91.215692 61.557045-211.909405 95.58682-339.936499 95.58682s-248.720807-33.9214-339.936499-95.58682c-45.373033-30.670147-81.136809-66.542299-106.352078-106.821703-26.73252-42.699781-40.279405-88.32569-40.279405-135.432724 0-34.71615 7.514006-68.998801 22.216892-101.728075l7.40563-16.436887h913.890919l7.405631 16.436887c14.811261 32.765399 22.216891 67.011924 22.216891 101.728075 0 47.251535-13.546885 92.732943-40.279404 135.432724z m-26.15452-197.892895H93.852819c-7.18888 20.48289-10.765258 41.435405-10.765258 62.604671 0 73.261554 43.386157 142.94673 122.102589 196.195019 82.07606 55.451916 191.787765 86.013688 308.905102 86.013688 117.008961 0 226.720666-30.561772 308.905101-86.013688 78.824808-53.248289 122.102589-122.933465 122.102589-196.195019 0.1445-21.169266-3.540253-42.266281-10.729133-62.604671z"  horiz-adv-x="1024" />

    
    <glyph glyph-name="yonghu3" unicode="&#58932;" d="M512 274.285714A237.714286 237.714286 0 1 1 512 749.714286a237.714286 237.714286 0 0 1 0-475.428572z m365.421714-402.285714c-7.68 122.002286-168.374857 219.428571-365.421714 219.428571-197.046857 0-357.741714-97.426286-365.421714-219.428571H0c0 141.531429 124.708571 263.314286 303.542857 317.44a384 384 0 1 0 416.914286 0C899.291429 135.314286 1024 13.531429 1024-128h-146.578286z"  horiz-adv-x="1024" />

    
    <glyph glyph-name="kefu3" unicode="&#58625;" d="M791.62409441 230.78131704999998c-72.77887481-65.11793987-172.37101793-107.25307806-279.62409441-107.25307651s-206.84522122 42.1351382-279.62409441 107.25307651C98.3095576 161.83291051000003 14.03928274 46.918899059999944 14.03928274-113.96071726000002h995.92143452c0 160.87961633-88.10074153 275.79362775-218.33662285 344.74203431z m-605.21379372 145.5577496v252.81082452h-11.49140163c57.4570065 126.40541305 183.86241797 210.67568789 333.25063425 210.67568787 149.38821469 0 275.79362775-88.10074153 333.25063268-210.67568787h-11.49140003v-252.81082452c72.77887481 0 130.23587972 57.4570065 130.23587973 126.40541146 0 45.9656049-26.81326991 88.10074153-65.11793987 111.08354475-57.4570065 157.04914963-206.84522122 268.13269439-386.87717251 268.1326944-180.03195131 0-329.42016599-111.08354475-386.8771725-268.1326944-38.30466996-22.98280165-65.11793987-61.28747318-65.11793985-111.08354475 0-72.77887481 57.4570065-126.40541305 130.23587973-126.40541146z m325.58969931 379.21623756c-153.21868295 0-279.62409441-122.57494636-279.62409441-275.79362775s126.40541305-275.79362775 279.62409441-275.79362777 279.62409441 122.57494636 279.62409441 275.79362777-126.40541305 275.79362775-279.62409441 275.79362775z"  horiz-adv-x="1024" />

    


  </font>
</defs>
</svg>
